<svg width="197" height="33" viewBox="0 0 197 33" fill="none" xmlns="http://www.w3.org/2000/svg">
<g clip-path="url(#clip0_301_110)">
<path d="M58.8698 11.0903V15.5855H67.7257V19.4696H58.8698V26.628H53.8483V7.20468H68.4881V11.0903H58.8698Z" fill="white"/>
<path d="M73.7062 26.628V7.20468H78.7277V26.628H73.7062Z" fill="white"/>
<path d="M99.2861 26.628L90.2052 14.6703V26.628H85.4944V7.20468H89.9231L99.0325 19.1905V7.20468H103.715V26.628H99.2861Z" fill="white"/>
<path d="M48.8474 20.1073C48.8474 24.2423 46.2241 26.628 42.022 26.628C39.2291 26.628 36.9736 25.4897 35.2236 23.5204L37.5379 20.218C38.947 21.6618 40.5273 22.3822 41.6828 22.3822C43.0095 22.3822 43.7989 21.5776 43.7989 19.9966L43.8179 6.95676H48.8474V20.1073Z" fill="white"/>
<path d="M124.814 10.3122L122.928 12.6276C121.533 11.1464 119.536 10.2327 117.594 10.2327C113.764 10.2327 110.756 13.1375 110.756 16.8516C110.756 20.5657 113.767 23.497 117.594 23.497C119.509 23.497 121.477 22.6363 122.928 21.2642L124.842 23.3629C122.901 25.2465 120.138 26.4564 117.429 26.4564C111.823 26.4564 107.468 22.2871 107.468 16.8719C107.468 11.5175 111.872 7.40112 117.534 7.40112C120.251 7.41446 122.858 8.45702 124.814 10.3122Z" fill="white"/>
<path d="M142.144 26.3224V18.5262H131.999V26.3224H128.769V7.48691H131.996V15.6682H142.14V7.48691H145.368V26.3224H142.144Z" fill="white"/>
<path d="M153.753 22.0719L151.92 26.3224H148.558L157.012 7.48691H160.321L168.691 26.3224H165.245L163.412 22.0719H153.753ZM158.567 10.8782L154.956 19.2466H162.177L158.567 10.8782Z" fill="white"/>
<path d="M171.62 26.3224V7.48691H174.849V26.3224H171.62Z" fill="white"/>
<path d="M193.827 26.3224L183.623 12.8179V26.3255H180.396V7.48691H183.566L193.823 21.0226V7.48691H196.994V26.3224H193.827Z" fill="white"/>
<path d="M10.3189 31.393C13.6721 32.6811 17.3655 32.836 20.8179 31.8331C24.2703 30.8303 27.2858 28.7268 29.3898 25.8535C31.4938 22.9802 32.5669 19.5004 32.4402 15.9615C32.3135 12.4226 30.9942 9.02557 28.69 6.30501C28.5464 6.12918 28.3686 5.98325 28.1671 5.87575C27.9655 5.76825 27.7442 5.70132 27.5161 5.67888C27.2879 5.65644 27.0575 5.67893 26.8383 5.74504C26.6191 5.81116 26.4155 5.91957 26.2393 6.06395C26.0632 6.20832 25.918 6.38578 25.8124 6.58594C25.7067 6.7861 25.6426 7.00497 25.6239 7.22976C25.6052 7.45454 25.6322 7.68075 25.7033 7.89516C25.7744 8.10958 25.8883 8.30791 26.0382 8.47857C27.8594 10.6266 28.9 13.3111 28.9949 16.1066C29.0899 18.9021 28.2338 21.6489 26.5623 23.9117C24.8908 26.1746 22.4995 27.824 19.7673 28.5988C17.0351 29.3735 14.1181 29.2293 11.4787 28.1889C8.83919 27.1485 6.62812 25.2714 5.19577 22.8551C3.76341 20.4388 3.19168 17.6214 3.57115 14.8494C3.95063 12.0773 5.25961 9.50901 7.29071 7.55148C9.32181 5.59395 11.9589 4.3591 14.7841 4.04257C15.2291 3.9801 15.6318 3.74929 15.9066 3.39925C16.1813 3.0492 16.3063 2.60753 16.2551 2.16819C16.2039 1.72884 15.9805 1.32648 15.6324 1.04669C15.2842 0.766889 14.8389 0.631734 14.391 0.669967C11.46 0.997025 8.67541 2.10512 6.33765 3.8747C3.99988 5.64428 2.19768 8.00818 1.12546 10.7114C-0.443235 14.6532 -0.355938 19.0465 1.36815 22.925C3.09223 26.8035 6.31189 29.8495 10.3189 31.393Z" fill="#C60000"/>
<path d="M19.4664 4.99682C19.8415 5.36384 20.3188 5.61318 20.8379 5.71327C21.3571 5.81337 21.8948 5.75973 22.3829 5.55914C22.8711 5.35855 23.2878 5.02003 23.5803 4.58641C23.8729 4.15279 24.0281 3.64356 24.0263 3.12315C24.0245 2.60274 23.8658 2.09454 23.5704 1.66286C23.2749 1.23118 22.8559 0.895413 22.3664 0.698053C21.8768 0.500692 21.3388 0.450604 20.8203 0.554127C20.3019 0.657649 19.8263 0.91013 19.4537 1.27962L19.4394 1.29365C19.1938 1.5384 18.9995 1.8284 18.8679 2.14706C18.7363 2.46572 18.6698 2.80678 18.6723 3.15073C18.6748 3.49468 18.7462 3.83478 18.8825 4.15155C19.0187 4.46832 19.2172 4.75555 19.4664 4.99682Z" fill="#C60000"/>
<path d="M19.0098 6.90063H23.9537V19.8984C23.9537 21.9846 23.2277 23.7263 21.8059 25.0687C20.354 26.4112 18.4947 27.0957 16.2581 27.0957C13.993 27.0957 12.1369 26.4097 10.6834 25.0687C9.22987 23.7278 8.50549 21.9846 8.50549 19.8984V19.2419H13.4192V20.0699C13.4192 21.6696 14.5811 22.7549 16.2359 22.7549C17.8907 22.7549 19.0241 21.6634 19.0241 20.0699V11.1823L19.0098 6.90063Z" fill="white"/>
</g>
<defs>
<clipPath id="clip0_301_110">
<rect width="197" height="32" fill="white" transform="translate(0 0.5)"/>
</clipPath>
</defs>
</svg>
